<svg version="1.1" xmlns="http://www.w3.org/2000/svg" xmlns:xlink="http://www.w3.org/1999/xlink" width="84" height="59.33154" viewBox="0,0,84,59.33154"><g transform="translate(-198,-131.16846)"><g data-paper-data="{&quot;isPaintingLayer&quot;:true}" fill="#000000" fill-rule="nonzero" stroke-linecap="butt" stroke-linejoin="miter" stroke-miterlimit="10" stroke-dasharray="" stroke-dashoffset="0" style="mix-blend-mode: normal"><path d="M199,189.5v-19h82v19z" stroke="#000000" stroke-width="2"/><path d="M237.5,184v-16.60047h9v16.60047z" stroke="#000000" stroke-width="2"/><path d="M242.79496,132.25885c0.79057,-1.51444 3.16228,-1.00962 3.16228,-1.00962l2.12998,0.70532c4.07548,3.12691 5.90363,5.96282 4.18791,10.09114c-0.10451,0.25148 -0.21122,0.50278 -0.32571,0.75008c2.66954,3.35811 4.34143,6.45333 4.06755,10.23741c5.01528,3.10902 6.31423,6.99684 3.84325,11.54529c-1.1069,2.03751 -2.27451,4.78106 -5.84249,5.65733c-1.92937,0.47383 -5.5511,-0.10933 -7.39953,-0.36923c-7.2618,-1.02106 -12.78772,-3.95703 -18.38532,-6.92937c0,0 -1.92055,-1.02195 -0.32009,-2.24831c1.60046,-1.22635 3.52101,-0.20439 3.52101,-0.20439c4.97054,2.64999 9.85075,5.34499 16.28134,6.26714c1.51624,0.21743 3.10343,0.74836 4.60047,0.48214c1.31295,-0.23348 2.60984,-3.32086 2.82418,-3.70793c1.32831,-2.39884 1.31242,-4.52448 -0.25486,-6.35874c-0.98195,1.4031 -2.85641,2.29389 -6.58642,2.30365c-4.75077,0.01244 -8.5069,-2.82692 -11.28955,-4.75665c-0.78316,-0.5431 -2.00754,-0.83765 -2.58357,-1.47778c-1.66754,-1.85306 -2.56467,-4.43896 1.42673,-5.76455c1.32659,-0.44058 2.99138,0.15995 4.44601,0.38113c3.55461,0.54049 7.24959,1.65947 10.58785,2.87155c-0.29951,-1.7152 -1.06063,-3.27961 -2.18119,-4.9266c-0.88094,0.25036 -1.99736,0.34666 -3.43876,0.22708c-4.19943,-0.34839 -7.56918,-7.68924 -0.4077,-7.62077c0.23504,0.00224 1.60288,0.82322 3.08397,1.75564c0.33956,-2.28005 -1.14523,-4.20944 -3.69618,-6.16136l0.12998,0.27962c0,0 -2.37171,-0.50481 -1.58114,-2.01925zM251.06731,154.506c-2.02569,-0.8092 -2.72293,-1.1558 -4.89994,-1.76137c-0.83029,-0.23096 -1.69703,-0.40431 -2.54518,-0.60711c-0.90705,-0.21687 -1.82136,-0.42182 -2.72041,-0.65186c-1.08859,-0.27854 -2.09895,-0.67422 -3.08723,-1.07736c-0.50749,-0.20702 0.363,0.75744 0.76007,1.04655c0.58896,0.42883 1.47209,0.66033 2.08309,1.07639c2.23822,1.52411 3.03116,2.39686 6.10717,3.22845c0.56377,0.15242 2.62406,0.94472 3.50624,0.44793c0.71614,-0.40329 0.81899,-1.03699 0.79619,-1.70161z" stroke="none" stroke-width="0.5"/></g></g></svg>